PathFileType	4	(X/Y/Z)	c:/Users/goper/Files/vsCode/490R/osim_files/C10/C10_SSWS_01.trc
DataRate	CameraRate	NumFrames	NumMarkers	Units                	OrigDataRate	OrigDataStartFrame	OrigNumFrames
250.00	250.00	10	36	mm	250.0	1245	2489
                Frame#	Time	LPSIS			LASIS			LTH1			LTH2			LTH3			LTH4			LLFE			LMFE			LSH1			LSH2			LSH3			LSH4			LLMAL			LMMAL			LCAL			LMTP5			LTOE			LMTP1			RPSIS			RASIS			RTH1			RTH2			RTH3			RTH4			RLFE			RMFE			RSH1			RSH2			RSH3			RSH4			RLMAL			RMMAL			RCAL			RMTP1			RTOE			RMTP5		
		X1	Y1	Z1	X2	Y2	Z2	X3	Y3	Z3	X4	Y4	Z4	X5	Y5	Z5	X6	Y6	Z6	X7	Y7	Z7	X8	Y8	Z8	X9	Y9	Z9	X10	Y10	Z10	X11	Y11	Z11	X12	Y12	Z12	X13	Y13	Z13	X14	Y14	Z14	X15	Y15	Z15	X16	Y16	Z16	X17	Y17	Z17	X18	Y18	Z18	X19	Y19	Z19	X20	Y20	Z20	X21	Y21	Z21	X22	Y22	Z22	X23	Y23	Z23	X24	Y24	Z24	X25	Y25	Z25	X26	Y26	Z26	X27	Y27	Z27	X28	Y28	Z28	X29	Y29	Z29	X30	Y30	Z30	X31	Y31	Z31	X32	Y32	Z32	X33	Y33	Z33	X34	Y34	Z34	X35	Y35	Z35	X36	Y36	Z36

1245	4.97600	-1516.63184	1018.29614	340.72064	-1676.88623	1008.54358	472.76816	-1682.71606	779.81293	516.23041	-1705.70776	738.63879	515.23260	-1735.62109	803.64417	497.58749	-1750.87524	758.50836	497.85867	0.00000	0.00000	0.00000	-1825.88843	502.87097	340.01218	-1734.03784	448.62827	460.04776	-1719.69312	403.44070	466.30371	-1790.53662	424.89310	459.64459	-1767.53625	384.98785	463.93414	-1640.32983	141.32217	439.24884	0.00000	0.00000	0.00000	-1571.39502	103.60287	383.47162	-1719.50476	57.74159	481.60883	-1786.23596	58.32810	432.84488	-1754.48975	35.33669	382.83124	-1520.61182	1023.43927	258.76144	-1680.71521	1009.85223	138.35228	-1597.04724	742.29108	106.55793	-1606.79187	699.37408	111.95211	-1657.75171	748.70874	102.90498	-1660.01233	704.52063	109.24892	-1630.63232	479.68954	188.32935	-1645.95056	480.64636	300.30096	-1553.10352	391.52344	184.69014	-1555.22998	347.47162	186.62277	-1617.11938	386.34747	190.45012	-1608.28308	343.97763	190.38290	-1559.95569	85.64373	253.10094	-1575.93945	100.71015	332.40823	-1501.32178	43.78024	293.40051	-1693.45276	33.82230	333.33948	-1726.03149	47.77329	293.54599	-1678.32092	30.57888	229.19556
1246	4.98000	-1521.29651	1017.61804	341.11911	-1681.94299	1008.56989	472.39801	-1688.29211	779.92328	516.34644	-1711.56006	738.80139	515.40857	-1741.87817	803.71716	497.23535	-1756.59436	758.95404	497.81091	0.00000	0.00000	0.00000	-1831.79150	503.43225	339.70312	-1741.22961	447.45306	460.92160	-1727.48633	400.03098	464.90628	-1799.52222	424.75714	459.71115	-1776.48901	383.99365	463.68076	-1655.76514	137.48734	438.96198	0.00000	0.00000	0.00000	-1588.68909	97.97928	382.91522	-1736.98706	55.89459	481.73090	-1803.94360	57.92806	433.28226	-1773.32922	34.10285	383.20883	-1525.21936	1022.93311	259.30106	-1685.69678	1009.32404	138.15697	-1600.31018	742.34503	106.53843	-1609.96204	699.24969	111.99049	-1661.14856	748.34363	102.83076	-1663.20825	704.13159	109.20621	-1632.64697	479.43762	188.37897	-1648.04810	480.43619	300.29657	-1554.69739	391.64566	184.65393	-1556.60291	347.60471	186.60130	-1617.95740	386.08533	190.68036	-1609.62671	343.83292	190.44473	-1560.15564	85.72255	253.15414	-1576.67322	100.52113	332.48032	-1501.33789	43.84755	293.41742	-1693.70557	33.73698	333.50311	-1726.09106	47.66386	293.55286	-1678.32825	30.57030	229.19270
1247	4.98400	-1525.92261	1017.00055	341.52618	-1686.83545	1008.51746	472.18130	-1693.95117	779.91229	516.46722	-1717.43347	738.94818	515.51678	-1747.25623	803.96307	497.16861	-1762.36572	759.27765	497.71268	0.00000	0.00000	0.00000	-1837.66077	503.95081	339.46973	-1748.78662	445.90512	460.79880	-1737.35266	399.14539	467.41864	-1806.60876	424.96371	459.45129	-1786.14062	383.66174	463.08344	-1672.29504	133.79706	438.27325	0.00000	0.00000	0.00000	-1605.64099	92.72908	382.12631	-1754.59314	54.26600	481.71405	-1821.69177	57.81657	433.68127	-1791.73181	33.32548	383.38727	-1529.79663	1022.40552	259.81503	-1689.23938	1008.68182	137.46130	-1603.64099	742.28870	106.65709	-1613.05688	699.12000	112.03391	-1664.49524	747.91516	102.76402	-1666.31763	703.72772	109.17247	-1634.66272	479.17459	188.47891	-1650.10095	480.16705	300.25458	-1556.24963	391.76044	184.64314	-1557.95190	347.70874	186.58746	-1619.45276	385.92432	190.70242	-1610.93506	343.70737	190.46428	-1560.33167	85.81975	253.23198	-1576.85132	100.53448	332.55222	-1501.38452	43.88033	293.45389	-1693.99585	33.66898	333.66531	-1726.11902	47.57623	293.55344	-1678.33252	30.56824	229.19739
1248	4.98800	-1530.61401	1016.30811	341.98843	-1691.83081	1008.33301	471.95554	-1699.59839	779.82886	516.60510	-1723.27783	738.92572	515.63123	-1752.79944	804.06592	497.01550	-1768.06799	759.50714	497.59915	0.00000	0.00000	0.00000	-1843.44592	504.28677	339.28900	-1756.37476	444.27890	460.65439	-1748.49597	401.46295	472.79639	-1814.66125	424.74780	459.19485	-1795.31836	382.94611	462.79614	-1688.23315	130.16132	437.96826	0.00000	0.00000	0.00000	-1622.64514	87.64957	381.57864	-1772.16675	52.70147	481.63892	-1838.71985	57.61868	433.88882	-1809.96265	32.36773	383.61676	-1534.26721	1021.92572	260.41864	-1693.55688	1008.08508	137.03436	-1607.11401	742.17065	106.75314	-1616.29382	698.96820	112.09562	-1667.89697	747.52094	102.77299	-1669.51575	703.33716	109.16650	-1636.64929	478.92886	188.51825	-1652.11194	479.84320	300.15466	-1557.83020	391.86514	184.61414	-1559.34875	347.81421	186.59857	-1621.03210	385.79395	190.75278	-1612.27039	343.57614	190.50133	-1560.51050	85.91026	253.29077	-1577.06189	100.54379	332.62997	-1501.39844	43.92913	293.49710	-1694.28125	33.83236	333.75623	-1726.48010	47.65884	293.43558	-1678.32776	30.57260	229.20430
1249	4.99200	-1535.27771	1015.62616	342.42633	-1696.75635	1008.13794	471.75937	-1705.13354	779.59924	516.74591	-1729.13159	738.79596	515.72760	-1758.00732	804.04041	497.10117	-1773.63733	759.50024	497.26581	0.00000	0.00000	0.00000	-1849.19788	504.53363	339.14206	-1763.91956	442.47864	460.54031	-1751.97021	396.09320	464.82086	-1822.71362	424.41269	458.99503	-1804.44348	382.16956	462.59845	-1704.22949	126.68501	437.58786	0.00000	0.00000	0.00000	-1639.70923	82.71140	381.13608	-1789.89600	51.30799	481.47388	-1856.17773	57.67768	433.91742	-1828.22009	31.78356	383.59155	-1538.89526	1021.40863	261.06207	-1697.70337	1007.40076	136.65565	-1610.49072	742.10443	106.81639	-1619.42151	698.86456	112.13302	-1671.35718	747.16217	102.77490	-1672.76855	702.91772	109.20930	-1638.63245	478.65106	188.58171	-1654.12415	479.41818	300.15601	-1559.38879	391.95236	184.63869	-1560.65930	347.89850	186.62816	-1622.53796	385.57758	190.83647	-1613.65149	343.40994	190.57092	-1560.69690	85.98371	253.38068	-1577.24683	100.54048	332.72162	-1501.43945	43.94878	293.54807	-1694.53088	33.56081	334.05286	-1725.75171	47.42329	293.62280	-1678.36218	30.56711	229.21562
1250	4.99600	-1539.94556	1014.94324	342.90579	-1701.71008	1007.87708	471.61694	-1710.67114	779.29333	516.86646	-1734.79724	738.61072	515.81061	-1762.97424	804.12164	497.34241	-1779.08411	759.25824	496.73187	0.00000	0.00000	0.00000	-1854.93518	504.67926	338.95920	-1771.41943	440.61777	460.41077	-1759.91187	394.39584	464.31812	-1830.70471	424.01868	458.68814	-1813.47314	381.40674	462.31628	-1720.15674	123.42690	437.17151	0.00000	0.00000	0.00000	-1656.66187	77.89875	380.67215	-1807.54028	50.16897	481.13531	-1874.29858	58.06124	433.68756	-1846.33325	31.61074	383.15741	-1543.40271	1020.91980	261.73886	-1701.84570	1006.78552	136.29759	-1613.89404	742.02496	106.88919	-1622.62097	698.70251	112.14893	-1674.81921	746.73956	102.82653	-1676.00574	702.49542	109.27184	-1640.59888	478.41028	188.64197	-1658.00281	479.49411	300.78207	-1560.95862	392.05624	184.60783	-1562.01050	348.00253	186.63593	-1624.13647	385.42386	190.81122	-1614.95728	343.29163	190.59552	-1560.85706	86.10732	253.44922	-1577.41211	100.55769	332.79770	-1501.29236	44.21487	293.46664	-1694.71191	34.32592	333.84546	-1725.62036	47.86007	293.08136	-1678.34070	30.55721	229.22353
1251	5.00000	-1544.63586	1014.25671	343.38351	-1706.58655	1007.52393	471.49078	-1716.26929	778.92621	517.02679	-1740.58655	738.34467	515.81329	-1768.67126	803.65991	497.17010	-1784.43335	758.83618	496.09686	0.00000	0.00000	0.00000	-1860.65222	504.78336	338.75809	-1778.91333	438.72977	460.35947	-1767.80029	392.73572	463.78372	-1838.64612	423.68445	458.41736	-1822.52563	380.66898	461.98657	-1736.15137	120.32420	436.79526	0.00000	0.00000	0.00000	-1673.01880	73.23571	381.12268	-1825.28149	49.21607	480.66583	-1891.77441	58.73655	433.40317	-1863.78088	31.77394	382.77106	-1547.95667	1020.45166	262.36502	-1706.07715	1006.03601	135.98692	-1617.36987	741.88806	106.96257	-1626.01196	698.61548	112.44912	-1678.27710	746.31476	102.89423	-1679.21582	702.09851	109.35004	-1642.59521	478.13593	188.66373	-1659.97534	479.01312	300.72614	-1562.47839	392.18234	184.61958	-1563.38171	348.11417	186.65083	-1625.57703	385.22989	190.90175	-1616.33228	343.13983	190.62285	-1561.03955	86.18864	253.52953	-1577.55408	100.56667	332.87802	-1501.45203	44.06117	293.64716	-1695.14685	34.17341	334.02768	-1725.64050	47.74692	293.09747	-1678.33228	30.55158	229.24397
1252	5.00400	-1549.49219	1013.51685	343.98618	-1711.49536	1007.12799	471.43335	-1721.90698	778.46545	517.15558	-1746.48242	737.95685	515.83417	-1774.12463	803.39832	497.14502	-1789.70911	758.28876	495.46033	0.00000	0.00000	0.00000	-1866.23743	504.78116	338.61682	-1786.63171	435.56003	458.51077	-1779.87219	388.69913	463.93314	-1846.54248	423.28397	458.06323	-1831.46814	379.89508	461.68860	-1752.13367	117.36388	436.41464	0.00000	0.00000	0.00000	-1690.94910	68.94997	379.93927	-1843.05969	48.43694	480.11069	-1909.09900	59.67460	432.83548	-1882.63110	32.16695	382.18082	-1552.48975	1019.98041	263.05759	-1710.24768	1005.34100	135.67923	-1620.81897	741.82819	107.05446	-1628.99854	698.42163	112.18726	-1681.75891	745.93341	103.00246	-1682.51355	701.70911	109.43990	-1644.55212	477.91199	188.67343	-1661.99170	478.56036	300.73083	-1564.06274	392.25128	184.66129	-1564.37720	348.49106	186.81996	-1627.09558	385.13809	190.67981	-1617.59680	342.98917	190.66106	-1561.18970	86.28833	253.60687	-1577.81409	100.55933	332.99060	-1501.39246	44.28502	293.59824	-1695.28235	34.06646	334.28259	-1725.69336	47.60450	293.22473	-1678.33789	30.54623	229.23938
1253	5.00800	-1554.27124	1012.87506	344.57925	-1716.47168	1006.63953	471.33496	-1727.56177	777.87360	517.29865	-1752.36987	737.47125	515.78851	-1779.43140	803.26825	497.31537	-1794.93652	757.67114	494.92172	0.00000	0.00000	0.00000	-1871.88257	504.72137	338.38605	-1794.33765	432.19769	456.60779	-1788.49146	386.58649	463.74417	-1854.35022	422.94843	457.74710	-1840.41211	379.17883	461.41754	-1768.18726	114.57742	436.03604	0.00000	0.00000	0.00000	-1708.01160	64.96870	379.45355	-1860.92859	47.99467	479.51981	-1926.37817	60.87577	432.17175	-1900.50732	32.88387	381.44440	-1557.15637	1019.51904	263.77762	-1714.57812	1004.59875	135.45024	-1624.26587	741.67242	107.12193	-1632.30249	698.21790	112.25427	-1685.26514	745.51227	103.09689	-1685.77429	701.28833	109.53590	-1646.46655	477.61426	188.69716	-1664.07349	478.10846	300.68460	-1565.63037	392.33792	184.71916	-1565.76831	348.57892	186.86710	-1628.66614	384.83304	190.83888	-1618.95044	342.84390	190.64249	-1561.33447	86.39336	253.69624	-1578.06030	100.55872	333.10406	-1501.57544	44.11338	293.81000	-1695.74329	33.89600	334.48477	-1725.73425	47.47714	293.26016	-1678.29895	30.51775	229.24135
1254	5.01200	-1559.05652	1012.18542	345.17358	-1721.27722	1006.06274	471.31140	-1733.11914	777.21912	517.38660	-1758.14050	736.89972	515.63867	-1785.16016	802.54309	497.05743	-1800.13989	757.03802	494.58054	0.00000	0.00000	0.00000	-1877.49207	504.54904	338.21262	-1801.95532	429.02319	455.20703	-1797.84302	384.09491	463.02808	-1862.92017	422.66769	457.57516	-1849.21594	378.55972	461.03922	-1784.15515	112.01538	435.66693	0.00000	0.00000	0.00000	-1725.29749	60.75336	379.23856	-1878.79053	47.71692	478.68091	-1943.63892	62.47443	431.38651	-1918.58276	34.01515	380.62634	-1561.78430	1019.12317	264.48080	-1718.78430	1003.86444	135.23686	-1627.78223	741.59399	107.19848	-1635.62476	698.03955	112.31902	-1688.75281	745.05328	103.25346	-1689.05078	700.87726	109.60678	-1648.41675	477.37170	188.67265	-1666.12256	477.67233	300.60773	-1567.14746	392.42953	184.73361	-1567.06165	348.68073	186.89929	-1630.15222	384.66000	190.77817	-1620.23206	342.68030	190.66736	-1561.45398	86.48727	253.74666	-1578.25269	100.56657	333.16556	-1501.61182	44.14282	293.86197	-1696.01855	33.81140	334.68430	-1725.78955	47.37113	293.30130	-1678.32178	30.48663	229.24760
